# xmcd
#
# Track frame offsets: 
#        150
#        16152
#        26964
#        36923
#        63150
#        75122
#        91872
#        106116
#        128017
#        137922
#        151168
#
# Disc length: 2228 seconds
#
# Revision: 2
# Processed by: cddbd v1.5.2PL0 Copyright (c) Steve Scherf et al.
# Submitted via: ExactAudioCopy v0.99pb5
#
DISCID=7708b20b
DTITLE=Johnny Noca$h - Dagger Road
DYEAR=2007
DGENRE=Acoustic
TTITLE0=City Haze
TTITLE1=Buck 20
TTITLE2=GDA
TTITLE3=A Legend to No One
TTITLE4=Dagger Road
TTITLE5=Personal Plague
TTITLE6=My Life Blows Big Balls
TTITLE7=The Deep Rest
TTITLE8=Hey Fiddle Diddle
TTITLE9=My Ring of Fire
TTITLE10=Ghost Woman
EXTD=
EXTT0=
EXTT1=
EXTT2=
EXTT3=
EXTT4=
EXTT5=
EXTT6=
EXTT7=
EXTT8=
EXTT9=
EXTT10=
PLAYORDER=
